<svg xmlns="http://www.w3.org/2000/svg" xmlns:xlink="http://www.w3.org/1999/xlink" width="500" zoomAndPan="magnify" viewBox="0 0 375 37.5" height="50" preserveAspectRatio="xMidYMid meet" version="1.0"><defs><g/></defs><g fill="#ffffff" fill-opacity="1"><g transform="translate(122.153806, 26.029836)"><g><path d="M 2.953125 -2.097656 L 6.734375 -2.097656 C 6.910156 -2.097656 6.988281 -2 6.988281 -1.84375 L 6.988281 -0.253906 C 6.988281 -0.078125 6.910156 0 6.734375 0 L 1.046875 0 C 0.890625 0 0.792969 -0.078125 0.792969 -0.253906 L 0.792969 -12.453125 C 0.792969 -12.613281 0.890625 -12.707031 1.046875 -12.707031 L 2.699219 -12.707031 C 2.875 -12.707031 2.953125 -12.613281 2.953125 -12.453125 Z M 2.953125 -2.097656 "/></g></g></g><g fill="#ffffff" fill-opacity="1"><g transform="translate(130.254393, 26.029836)"><g><path d="M 1.046875 -12.707031 C 0.875 -12.707031 0.792969 -12.613281 0.792969 -12.453125 L 0.792969 -0.253906 C 0.792969 -0.09375 0.875 0 1.046875 0 L 2.699219 0 C 2.859375 0 2.953125 -0.09375 2.953125 -0.253906 L 2.953125 -12.453125 C 2.953125 -12.613281 2.859375 -12.707031 2.699219 -12.707031 Z M 1.046875 -12.707031 "/></g></g></g><g fill="#ffffff" fill-opacity="1"><g transform="translate(134.32057, 26.029836)"><g><path d="M 7.164062 -10.417969 C 7.164062 -11.914062 6.351562 -12.707031 4.859375 -12.707031 L 1.046875 -12.707031 C 0.890625 -12.707031 0.792969 -12.628906 0.792969 -12.453125 L 0.792969 -0.253906 C 0.792969 -0.09375 0.890625 0 1.046875 0 L 4.859375 0 C 6.351562 0 7.164062 -0.792969 7.164062 -2.289062 L 7.164062 -5.210938 C 7.164062 -5.796875 6.734375 -6.242188 6.164062 -6.335938 L 6.164062 -6.371094 C 6.734375 -6.464844 7.164062 -6.910156 7.164062 -7.496094 Z M 5.050781 -8.019531 C 5.050781 -7.625 4.828125 -7.402344 4.414062 -7.402344 L 2.96875 -7.402344 L 2.96875 -10.609375 L 4.414062 -10.609375 C 4.84375 -10.609375 5.050781 -10.386719 5.050781 -9.976562 Z M 5.050781 -2.730469 C 5.050781 -2.304688 4.828125 -2.097656 4.414062 -2.097656 L 2.96875 -2.097656 L 2.96875 -5.304688 L 4.414062 -5.304688 C 4.84375 -5.304688 5.050781 -5.082031 5.050781 -4.667969 Z M 5.050781 -2.730469 "/></g></g></g><g fill="#ffffff" fill-opacity="1"><g transform="translate(142.595875, 26.029836)"><g><path d="M 7.324219 -10.417969 C 7.324219 -11.914062 6.527344 -12.707031 5.035156 -12.707031 L 1.046875 -12.707031 C 0.890625 -12.707031 0.792969 -12.613281 0.792969 -12.453125 L 0.792969 -0.253906 C 0.792969 -0.09375 0.890625 0 1.046875 0 L 2.699219 0 C 2.859375 0 2.953125 -0.09375 2.953125 -0.253906 L 2.953125 -4.257812 L 4.050781 -4.257812 L 5.113281 -0.222656 C 5.144531 -0.078125 5.226562 0 5.382812 0 L 7.035156 0 C 7.210938 0 7.304688 -0.09375 7.257812 -0.285156 L 6.164062 -4.449219 C 6.925781 -4.78125 7.324219 -5.480469 7.324219 -6.542969 Z M 2.953125 -6.351562 L 2.953125 -10.609375 L 4.527344 -10.609375 C 4.941406 -10.609375 5.164062 -10.386719 5.164062 -9.976562 L 5.164062 -6.988281 C 5.164062 -6.574219 4.941406 -6.351562 4.527344 -6.351562 Z M 2.953125 -6.351562 "/></g></g></g><g fill="#ffffff" fill-opacity="1"><g transform="translate(151.030015, 26.029836)"><g><path d="M 7.132812 -12.453125 C 7.132812 -12.613281 7.066406 -12.707031 6.878906 -12.707031 L 1.03125 -12.707031 C 0.890625 -12.707031 0.792969 -12.613281 0.792969 -12.453125 L 0.792969 -0.253906 C 0.792969 -0.09375 0.890625 0 1.03125 0 L 6.878906 0 C 7.066406 0 7.132812 -0.09375 7.132812 -0.253906 L 7.132812 -1.84375 C 7.132812 -2.015625 7.066406 -2.097656 6.878906 -2.097656 L 2.90625 -2.097656 L 2.90625 -5.304688 L 5.941406 -5.304688 C 6.097656 -5.304688 6.195312 -5.398438 6.195312 -5.574219 L 6.195312 -7.148438 C 6.195312 -7.324219 6.097656 -7.417969 5.941406 -7.417969 L 2.90625 -7.417969 L 2.90625 -10.59375 L 6.878906 -10.59375 C 7.066406 -10.59375 7.132812 -10.707031 7.132812 -10.863281 Z M 7.132812 -12.453125 "/></g></g></g><g fill="#ffffff" fill-opacity="1"><g transform="translate(159.273553, 26.029836)"><g><path d="M 7.324219 -10.417969 C 7.324219 -11.914062 6.527344 -12.707031 5.035156 -12.707031 L 1.046875 -12.707031 C 0.890625 -12.707031 0.792969 -12.613281 0.792969 -12.453125 L 0.792969 -0.253906 C 0.792969 -0.09375 0.890625 0 1.046875 0 L 2.699219 0 C 2.859375 0 2.953125 -0.09375 2.953125 -0.253906 L 2.953125 -4.257812 L 4.050781 -4.257812 L 5.113281 -0.222656 C 5.144531 -0.078125 5.226562 0 5.382812 0 L 7.035156 0 C 7.210938 0 7.304688 -0.09375 7.257812 -0.285156 L 6.164062 -4.449219 C 6.925781 -4.78125 7.324219 -5.480469 7.324219 -6.542969 Z M 2.953125 -6.351562 L 2.953125 -10.609375 L 4.527344 -10.609375 C 4.941406 -10.609375 5.164062 -10.386719 5.164062 -9.976562 L 5.164062 -6.988281 C 5.164062 -6.574219 4.941406 -6.351562 4.527344 -6.351562 Z M 2.953125 -6.351562 "/></g></g></g><g fill="#ffffff" fill-opacity="1"><g transform="translate(167.707694, 26.029836)"><g/></g></g><g fill="#ffffff" fill-opacity="1"><g transform="translate(171.996239, 26.029836)"><g><path d="M 8.449219 0 C 8.640625 0 8.703125 -0.09375 8.671875 -0.269531 L 6.035156 -12.484375 C 6.003906 -12.644531 5.910156 -12.707031 5.765625 -12.707031 L 3.558594 -12.707031 C 3.414062 -12.707031 3.320312 -12.644531 3.289062 -12.484375 L 0.652344 -0.269531 C 0.605469 -0.09375 0.683594 0 0.859375 0 L 2.558594 0 C 2.699219 0 2.78125 -0.078125 2.8125 -0.222656 L 3.238281 -2.542969 L 6.066406 -2.542969 L 6.511719 -0.222656 C 6.542969 -0.078125 6.625 0 6.765625 0 Z M 5.671875 -4.382812 L 3.636719 -4.382812 L 4.652344 -9.925781 Z M 5.671875 -4.382812 "/></g></g></g><g fill="#ffffff" fill-opacity="1"><g transform="translate(178.844574, 25.781017)"><g><path d="M 7.1875 -22.84375 L 9.375 -22.84375 L 9.375 7.25 L 7.1875 7.25 Z M 7.1875 -22.84375 "/></g></g></g><g fill="#ffffff" fill-opacity="1"><g transform="translate(182.693242, 25.781017)"><g><path d="M 7.1875 -22.84375 L 9.375 -22.84375 L 9.375 7.25 L 7.1875 7.25 Z M 7.1875 -22.84375 "/></g></g></g><g fill="#ffffff" fill-opacity="1"><g transform="translate(191.706802, 28.506706)"><g><path d="M 1.328125 -19.171875 L 3.03125 -19.578125 L 8.671875 3.90625 L 6.96875 4.3125 Z M 1.328125 -19.171875 "/></g></g></g><g fill="#ffffff" fill-opacity="1"><g transform="translate(168.712035, 26.159954)"><g><path d="M -2.6875 -14.191406 C -2.878906 -14.136719 -2.9375 -14.011719 -2.890625 -13.835938 L 0.789062 -0.515625 C 0.839844 -0.34375 0.953125 -0.261719 1.144531 -0.316406 L 2.949219 -0.816406 C 3.121094 -0.863281 3.195312 -0.996094 3.148438 -1.167969 L -0.53125 -14.488281 C -0.578125 -14.660156 -0.710938 -14.738281 -0.882812 -14.6875 Z M -2.6875 -14.191406 "/></g></g></g><g fill="#ffffff" fill-opacity="1"><g transform="translate(205.496406, 26.457999)"><g><path d="M 7.148438 -12.453125 C 7.148438 -12.613281 7.050781 -12.707031 6.894531 -12.707031 L 1.046875 -12.707031 C 0.875 -12.707031 0.792969 -12.613281 0.792969 -12.453125 L 0.792969 -0.253906 C 0.792969 -0.09375 0.875 0 1.046875 0 L 2.699219 0 C 2.859375 0 2.953125 -0.09375 2.953125 -0.253906 L 2.953125 -5.320312 L 5.941406 -5.320312 C 6.097656 -5.320312 6.195312 -5.398438 6.195312 -5.574219 L 6.195312 -7.164062 C 6.195312 -7.324219 6.097656 -7.417969 5.941406 -7.417969 L 2.953125 -7.417969 L 2.953125 -10.609375 L 6.894531 -10.609375 C 7.050781 -10.609375 7.148438 -10.707031 7.148438 -10.863281 Z M 7.148438 -12.453125 "/></g></g></g><g fill="#ffffff" fill-opacity="1"><g transform="translate(213.755827, 26.457999)"><g><path d="M 0.792969 -0.253906 C 0.792969 -0.078125 0.875 0 1.046875 0 L 4.859375 0 C 6.351562 0 7.148438 -0.792969 7.148438 -2.289062 L 7.148438 -10.402344 C 7.148438 -11.898438 6.351562 -12.707031 4.859375 -12.707031 L 1.046875 -12.707031 C 0.875 -12.707031 0.792969 -12.613281 0.792969 -12.453125 Z M 2.953125 -2.097656 L 2.953125 -10.609375 L 4.414062 -10.609375 C 4.828125 -10.609375 5.050781 -10.386719 5.050781 -9.957031 L 5.050781 -2.730469 C 5.050781 -2.304688 4.828125 -2.097656 4.414062 -2.097656 Z M 2.953125 -2.097656 "/></g></g></g><g fill="#ffffff" fill-opacity="1"><g transform="translate(222.015248, 26.457999)"><g><path d="M 7.324219 -10.417969 C 7.324219 -11.914062 6.527344 -12.707031 5.035156 -12.707031 L 1.046875 -12.707031 C 0.890625 -12.707031 0.792969 -12.613281 0.792969 -12.453125 L 0.792969 -0.253906 C 0.792969 -0.09375 0.890625 0 1.046875 0 L 2.699219 0 C 2.859375 0 2.953125 -0.09375 2.953125 -0.253906 L 2.953125 -4.257812 L 4.050781 -4.257812 L 5.113281 -0.222656 C 5.144531 -0.078125 5.226562 0 5.382812 0 L 7.035156 0 C 7.210938 0 7.304688 -0.09375 7.257812 -0.285156 L 6.164062 -4.449219 C 6.925781 -4.78125 7.324219 -5.480469 7.324219 -6.542969 Z M 2.953125 -6.351562 L 2.953125 -10.609375 L 4.527344 -10.609375 C 4.941406 -10.609375 5.164062 -10.386719 5.164062 -9.976562 L 5.164062 -6.988281 C 5.164062 -6.574219 4.941406 -6.351562 4.527344 -6.351562 Z M 2.953125 -6.351562 "/></g></g></g></svg>